<?xml version="1.0" standalone="no"?>
<!DOCTYPE svg PUBLIC "-//W3C//DTD SVG 20010904//EN"
 "http://www.w3.org/TR/2001/REC-SVG-20010904/DTD/svg10.dtd">
<svg version="1.0" xmlns="http://www.w3.org/2000/svg"
 width="500.000000pt" height="500.000000pt" viewBox="0 0 500.000000 500.000000"
 preserveAspectRatio="xMidYMid meet">
<metadata>
Created by potrace 1.14, written by Peter Selinger 2001-2017
</metadata>
<g transform="translate(0.000000,500.000000) scale(0.100000,-0.100000)"
fill="#000000" stroke="none">
<path d="M2248 4885 c-1 -2 -28 -6 -58 -10 -30 -3 -80 -10 -110 -15 -30 -5
-71 -12 -90 -15 -32 -6 -171 -41 -248 -64 -205 -61 -493 -208 -680 -348 -104
-78 -131 -102 -248 -218 -186 -185 -315 -363 -435 -600 -96 -191 -189 -464
-213 -630 -4 -23 -8 -51 -11 -64 -2 -13 -7 -49 -10 -80 -3 -31 -8 -70 -10 -87
-7 -42 -8 -349 -1 -399 2 -22 8 -69 12 -105 4 -36 8 -67 9 -70 1 -3 5 -27 9
-55 43 -280 198 -666 374 -930 91 -137 243 -321 261 -317 7 1 10 -2 7 -6 -8
-13 31 -55 43 -48 5 4 13 1 17 -5 4 -8 3 -9 -4 -5 -26 16 -10 -13 26 -44 191
-173 324 -272 502 -373 301 -172 666 -285 1015 -313 92 -8 364 -8 400 0 11 3
35 5 53 5 24 1 31 5 26 14 -5 9 -4 9 5 1 9 -8 40 -6 119 8 464 82 896 305
1223 630 114 112 237 258 268 316 6 11 17 26 24 34 23 23 104 161 152 258 86
172 182 449 200 580 4 24 8 47 10 50 2 3 6 30 10 60 4 30 9 58 10 61 8 11 18
198 19 314 0 106 -10 275 -19 323 -1 9 -6 37 -10 62 -70 426 -248 825 -522
1165 -119 149 -210 239 -408 404 -73 61 -278 189 -407 255 -242 122 -520 210
-764 241 -27 4 -60 9 -74 12 -28 6 -466 13 -472 8z m437 -26 c135 -15 171 -21
285 -46 454 -99 880 -333 1210 -663 407 -407 666 -952 717 -1511 14 -150 6
-496 -12 -552 -2 -7 -6 -30 -9 -52 -73 -570 -451 -1188 -916 -1500 -169 -113
-401 -210 -554 -233 -28 -4 -100 -7 -161 -6 -114 1 -243 27 -332 66 -24 10
-46 18 -49 18 -4 -1 -10 3 -13 8 -7 11 -91 55 -91 48 0 -3 -11 6 -24 19 -16
16 -31 22 -42 18 -11 -4 -15 -2 -11 4 4 6 -19 30 -51 53 -31 24 -72 57 -90 73
-17 17 -32 28 -32 23 0 -4 14 -19 30 -33 46 -39 27 -40 -22 -2 -24 18 -45 36
-48 39 -3 3 -23 20 -45 39 -42 35 -176 154 -205 182 -91 86 -314 191 -454 213
-21 4 -42 9 -47 12 -5 3 -9 0 -9 -5 0 -6 8 -11 18 -12 57 -2 190 -43 277 -85
103 -49 170 -97 302 -214 65 -58 145 -127 178 -154 33 -26 67 -53 75 -59 51
-41 80 -56 97 -51 13 4 14 3 5 -4 -10 -7 -8 -13 12 -25 14 -9 31 -14 39 -11 8
3 18 1 22 -5 4 -7 -1 -8 -12 -4 -14 4 -15 3 -7 -6 6 -7 20 -13 32 -14 14 -1
18 -5 12 -13 -6 -6 -7 -13 -4 -17 3 -3 -5 -3 -18 -1 -23 5 -23 5 2 -10 33 -20
40 -20 35 4 -2 11 1 23 7 26 7 5 8 2 3 -6 -6 -10 -3 -12 11 -7 18 7 18 7 0 -8
-15 -11 -16 -15 -5 -15 8 0 21 6 29 13 12 10 12 9 1 -6 -7 -9 -21 -17 -30 -18
-12 0 -12 -2 3 -8 19 -7 19 -8 -2 -13 -12 -4 -20 -3 -17 1 2 4 -8 8 -24 8 -15
0 -62 16 -105 36 -42 20 -79 37 -81 37 -13 0 -161 91 -336 206 -158 105 -332
177 -539 224 -52 12 -101 23 -107 25 -7 3 -13 1 -13 -3 0 -4 48 -18 108 -31
239 -54 378 -115 592 -256 157 -104 189 -123 325 -190 107 -52 249 -105 282
-105 23 0 13 -6 -22 -14 -23 -5 -27 -4 -15 4 12 9 6 10 -25 6 -28 -4 -34 -3
-20 4 11 5 16 9 10 9 -5 1 -21 4 -35 6 -22 5 -23 4 -5 -5 16 -8 13 -9 -15 -5
-51 8 -17 -10 47 -25 40 -9 61 -9 85 -1 18 6 28 7 23 2 -17 -16 -84 -30 -87
-19 -2 6 -35 11 -73 13 -39 1 -92 7 -120 14 -68 17 -297 104 -386 147 -125 61
-276 119 -464 179 -445 140 -557 179 -665 231 -63 31 -110 58 -104 60 6 3 34
-7 63 -21 83 -42 256 -101 469 -159 368 -101 476 -141 697 -254 72 -37 150
-76 175 -86 163 -70 304 -116 317 -102 4 3 -1 6 -11 6 -9 0 -14 5 -11 10 6 9
-73 50 -96 50 -22 0 -213 92 -329 159 -233 134 -382 191 -725 276 -295 73
-418 113 -540 175 -54 28 -100 48 -102 46 -5 -5 160 -96 173 -96 7 0 43 -13
139 -51 11 -4 31 -10 45 -13 587 -145 725 -191 958 -324 138 -78 290 -150 395
-187 81 -29 99 -41 45 -30 -85 18 -277 97 -430 178 -189 101 -349 160 -683
251 -294 80 -468 145 -577 213 -44 27 -56 29 -37 6 12 -15 12 -16 -4 -10 -43
16 -10 -12 66 -55 118 -68 243 -120 429 -178 467 -147 578 -185 691 -236 302
-138 515 -213 613 -217 35 -1 47 -5 40 -13 -25 -27 -299 49 -572 160 -209 84
-286 111 -639 225 -273 89 -419 151 -548 233 -26 17 -50 28 -53 25 -7 -6 89
-65 192 -116 122 -60 171 -78 668 -241 104 -34 257 -90 340 -125 216 -89 416
-155 526 -171 14 -2 36 -6 50 -8 14 -3 34 -5 45 -5 13 -1 21 -8 21 -20 0 -11
-5 -17 -13 -14 -7 3 -11 9 -8 13 2 4 -32 12 -78 18 -94 13 -96 13 -202 41
-106 27 -208 60 -335 109 -105 40 -451 161 -480 167 -17 4 -235 81 -324 115
-75 29 -293 139 -334 170 -18 13 -34 21 -37 18 -14 -14 217 -140 365 -199 58
-23 236 -86 395 -139 160 -54 349 -120 420 -148 215 -81 384 -128 540 -148 28
-3 52 -8 55 -11 5 -5 -105 3 -145 11 -11 2 -42 7 -70 10 -63 9 -143 29 -270
68 -55 18 -104 33 -110 34 -5 1 -35 12 -65 24 -30 12 -62 23 -70 25 -30 6
-357 117 -490 167 -186 69 -375 163 -500 246 -58 39 -107 69 -109 66 -6 -6 -8
-4 104 -79 201 -135 382 -211 950 -400 435 -145 577 -181 734 -184 30 0 51 -4
48 -8 -7 -6 -103 -5 -157 2 -14 2 -52 6 -85 10 -33 4 -63 9 -66 11 -4 2 -24 6
-45 9 -66 10 -262 65 -434 122 -41 13 -82 26 -90 28 -8 2 -67 22 -130 45 -63
23 -135 48 -160 57 -69 23 -288 123 -355 161 -33 19 -76 43 -95 54 -19 11 -54
34 -78 50 -24 17 -46 27 -49 24 -4 -3 -4 -7 -2 -9 38 -26 120 -77 124 -77 3 0
24 -12 47 -26 58 -37 199 -106 304 -150 225 -93 761 -266 889 -288 17 -2 53
-9 80 -14 49 -10 87 -15 270 -32 76 -7 66 -8 -60 -4 -82 3 -157 7 -165 9 -8 2
-37 6 -65 10 -276 34 -767 191 -1067 341 -159 79 -361 214 -463 308 -26 24
-17 20 25 -13 36 -28 69 -51 74 -51 13 0 6 7 -73 69 -35 28 -67 49 -70 46 -4
-2 -8 2 -8 10 0 11 8 9 29 -7 48 -34 40 -15 -12 30 -28 24 -54 41 -59 37 -5
-3 -12 -1 -15 3 -3 5 2 9 12 8 9 0 45 -25 80 -53 35 -29 68 -53 75 -53 7 1 1
10 -13 21 -89 72 -111 92 -105 97 3 3 -7 18 -22 34 -15 15 -23 28 -18 28 5 0
-9 19 -30 41 -22 23 -33 38 -25 33 8 -5 24 -10 35 -11 19 -3 18 -1 -3 17 -12
10 -31 17 -41 15 -10 -2 -18 3 -18 11 0 10 4 11 14 3 16 -14 17 3 1 19 -17 17
-18 39 -2 39 8 0 12 -3 9 -5 -7 -7 36 -52 48 -52 6 0 0 11 -13 25 -13 14 -20
25 -15 25 4 0 0 9 -10 20 -9 10 -22 18 -27 17 -6 -1 -12 6 -13 16 -2 9 0 15 4
12 5 -2 17 2 27 10 19 15 19 15 0 8 -16 -5 -18 -3 -13 11 4 9 3 15 -2 12 -4
-3 -16 3 -26 14 -14 16 -21 18 -27 8 -7 -10 -8 -9 -6 2 2 9 -1 15 -7 15 -5 0
-9 -4 -7 -10 2 -5 -3 -4 -10 3 -7 7 -13 23 -13 35 -1 12 -6 21 -13 20 -7 -2
-9 4 -5 15 6 15 3 15 -18 -3 -13 -11 -18 -13 -12 -5 10 11 10 17 -3 31 -14 16
-14 17 2 15 19 -3 65 -56 58 -67 -2 -4 0 -10 5 -13 5 -4 13 -2 16 4 5 8 11 7
21 -1 7 -6 11 -16 7 -22 -4 -6 -1 -7 7 -2 9 6 11 4 5 -5 -6 -9 -4 -11 5 -5 9
6 11 4 5 -5 -6 -9 -4 -11 5 -5 9 6 11 4 5 -6 -6 -11 -5 -11 5 -3 9 9 0 25 -45
70 -114 118 -237 298 -323 470 -52 103 -127 287 -137 334 -2 8 -15 62 -28 120
-37 154 -38 168 -42 370 -3 169 0 225 19 345 29 188 116 448 206 620 92 176
134 240 256 390 383 471 924 769 1524 839 127 15 396 18 505 5z m-2110 -3409
c-3 -5 -12 -10 -18 -10 -7 0 -6 4 3 10 19 12 23 12 15 0z m90 -149 c3 -5 2
-12 -3 -15 -5 -3 -9 1 -9 9 0 17 3 19 12 6z m68 -31 c10 -12 9 -12 -3 -4 -19
13 -46 11 -43 -3 3 -13 -22 -11 -34 2 -4 4 -3 5 3 2 7 -4 17 -1 23 7 14 17 37
15 54 -4z m-7 -76 c1 -9 -1 -13 -4 -9 -4 4 -7 12 -7 18 -1 7 -7 11 -14 9 -7
-1 -9 2 -6 9 9 13 28 -3 31 -27z m4 -58 c0 -2 -6 -9 -14 -15 -11 -9 -16 -9
-22 0 -4 7 -3 9 4 5 6 -3 13 -2 17 4 6 10 15 14 15 6z m20 -52 c0 -8 -19 -13
-24 -6 -3 5 1 9 9 9 8 0 15 -2 15 -3z m17 -21 c-4 -3 -1 -13 6 -22 11 -14 10
-14 -5 -2 -16 12 -16 31 -1 31 4 0 3 -3 0 -7z m33 -38 c-1 -4 10 -19 24 -34
l26 -27 -23 -1 c-12 0 -16 1 -9 4 10 4 9 10 -4 25 -15 16 -32 59 -17 45 2 -3
4 -8 3 -12z m0 -41 c0 -8 -19 -13 -24 -6 -3 5 1 9 9 9 8 0 15 -2 15 -3z m186
-59 c10 -8 14 -15 8 -15 -5 0 -19 7 -30 15 -10 8 -14 15 -8 15 5 0 19 -7 30
-15z m-131 -14 c3 -5 2 -12 -3 -15 -5 -3 -9 1 -9 9 0 17 3 19 12 6z m211 -228
c39 -28 104 -71 145 -96 70 -42 291 -157 304 -157 3 0 24 -9 48 -19 171 -80
587 -208 794 -246 15 -2 37 -7 48 -9 25 -5 129 -17 175 -21 19 -2 93 -4 164
-4 71 -1 127 -4 123 -7 -8 -8 -307 -8 -377 0 -30 4 -77 9 -105 13 -27 4 -57 7
-65 8 -80 7 -486 115 -575 154 -11 5 -51 21 -90 37 -193 76 -420 203 -578 322
-32 25 -60 42 -63 39 -6 -6 87 -77 181 -139 120 -77 260 -152 426 -227 170
-76 556 -182 749 -206 30 -4 64 -9 75 -11 11 -2 78 -6 149 -8 70 -3 131 -8
135 -11 6 -7 -331 1 -394 9 -220 27 -448 85 -645 164 -236 94 -462 230 -658
396 -46 39 -90 76 -99 83 -8 6 -16 18 -17 27 -1 9 -18 33 -37 53 -19 20 0 8
41 -28 41 -36 107 -88 146 -116z m1554 -154 l35 -31 -33 19 c-35 19 -61 43
-46 43 5 0 25 -14 44 -31z m205 -189 c-3 -5 -12 -10 -18 -10 -7 0 -6 4 3 10
19 12 23 12 15 0z m79 -16 c3 -8 2 -12 -4 -9 -6 3 -10 10 -10 16 0 14 7 11 14
-7z m56 -53 c-8 -5 -26 -11 -40 -15 -21 -5 -20 -3 5 9 32 15 60 20 35 6z
m-137 -38 c-7 -2 -21 -2 -30 0 -10 3 -4 5 12 5 17 0 24 -2 18 -5z m42 -31
c-11 -2 -25 -8 -32 -14 -8 -6 -10 -4 -8 9 2 10 4 19 4 19 1 1 13 -1 29 -4 22
-5 23 -7 7 -10z m112 2 c-3 -3 -12 -4 -19 -1 -8 3 -5 6 6 6 11 1 17 -2 13 -5z
m-70 -20 c-3 -3 -12 -4 -19 -1 -8 3 -5 6 6 6 11 1 17 -2 13 -5z m-90 -20 c-3
-3 -12 -4 -19 -1 -8 3 -5 6 6 6 11 1 17 -2 13 -5z m120 -30 c-3 -3 -12 -4 -19
-1 -8 3 -5 6 6 6 11 1 17 -2 13 -5z m-133 -33 c-9 -9 -34 -9 -34 -1 0 5 9 8
20 7 10 -1 17 -3 14 -6z"/>
<path d="M2100 4158 c-514 -37 -921 -313 -1100 -747 -59 -144 -82 -260 -86
-441 -3 -156 0 -187 31 -345 35 -176 161 -400 308 -548 228 -228 539 -359 887
-371 37 -2 71 -5 76 -9 6 -3 9 -79 8 -186 -1 -157 1 -180 15 -183 9 -2 234 -3
501 -3 535 2 597 8 775 66 534 177 812 707 671 1280 -43 172 -115 303 -241
438 -160 170 -392 285 -647 322 -83 12 -1067 21 -1069 9 -1 -3 -3 -297 -4
-655 -2 -357 -3 -660 -4 -672 -1 -24 3 -24 -151 -7 -81 8 -229 60 -312 109
-256 151 -396 406 -396 725 -1 246 83 449 250 607 214 201 552 276 867 192
127 -34 263 -108 356 -192 22 -20 45 -36 52 -34 23 5 274 258 267 269 -28 45
-148 146 -239 200 -219 132 -520 196 -815 176z m1122 -918 c24 -4 62 -11 85
-14 116 -15 298 -100 400 -185 124 -103 221 -256 265 -418 32 -118 31 -355 -1
-473 -71 -252 -216 -427 -452 -541 -62 -30 -216 -74 -294 -84 -40 -5 -595 -9
-743 -6 l-33 1 3 102 3 102 85 17 c130 26 275 76 379 131 105 54 210 125 212
142 1 6 2 221 3 479 l1 467 -211 0 -211 0 1 -357 c1 -197 0 -365 -2 -374 -2
-9 -25 -26 -50 -39 -53 -25 -179 -70 -199 -70 -11 0 -13 103 -13 566 l0 565
364 -2 c201 -1 384 -5 408 -9z"/>
<path d="M766 1285 c-3 -8 -2 -14 2 -14 26 4 31 -2 15 -19 -10 -11 -21 -17
-25 -15 -4 2 -10 -2 -14 -8 -4 -7 -3 -9 3 -6 6 4 21 -5 33 -18 13 -14 20 -25
15 -25 -4 0 0 -9 10 -20 19 -21 29 -50 17 -50 -3 0 -22 15 -41 33 -23 21 -29
23 -16 7 11 -13 30 -33 43 -43 24 -20 20 -42 -6 -32 -10 3 -4 -7 12 -24 17
-17 26 -31 21 -31 -5 0 4 -13 19 -29 15 -16 27 -33 26 -38 -3 -10 68 -68 75
-62 2 3 -15 20 -38 38 -33 26 -36 32 -17 26 29 -9 28 -7 -24 34 -21 17 -33 31
-25 31 9 1 5 8 -10 20 -13 11 -18 20 -12 20 7 0 9 5 6 10 -3 6 -1 10 6 10 8 0
7 5 -2 17 -13 16 -13 16 11 0 27 -19 44 -22 35 -7 -10 16 5 12 49 -14 67 -39
246 -91 386 -111 24 -4 47 -8 50 -10 3 -1 36 -6 75 -10 38 -4 73 -9 76 -11 4
-2 27 -6 50 -9 83 -11 264 -56 348 -86 123 -46 198 -88 378 -215 89 -62 178
-123 197 -134 20 -11 53 -30 74 -41 67 -39 146 -77 172 -83 15 -3 9 2 -14 13
l-39 19 32 7 31 7 -46 24 c-68 36 -299 200 -344 243 -29 29 -122 105 -178 148
-154 116 -392 194 -662 218 -36 3 -81 8 -100 10 -19 2 -71 7 -115 10 -44 4
-87 8 -95 10 -8 2 -35 7 -60 10 -25 3 -60 11 -78 16 -18 6 -38 9 -45 6 -27 -9
146 -41 283 -52 41 -3 91 -8 110 -10 19 -2 79 -9 134 -15 187 -20 337 -58 461
-118 63 -30 162 -88 175 -102 3 -3 32 -27 65 -55 33 -27 66 -55 73 -62 27 -26
179 -141 247 -187 80 -55 82 -56 68 -56 -9 0 -53 26 -168 103 -33 22 -109 79
-170 126 -109 86 -212 154 -270 180 -78 35 -157 63 -230 82 -97 26 -355 68
-355 59 0 -3 42 -12 93 -19 193 -27 344 -66 467 -123 58 -26 174 -95 207 -123
7 -5 19 -16 28 -23 92 -78 291 -218 380 -267 48 -28 71 -33 41 -10 -29 22 -11
18 26 -6 25 -16 27 -19 9 -14 -16 5 -21 4 -17 -4 4 -6 3 -11 -1 -11 -22 0
-242 136 -383 236 -230 163 -373 230 -575 270 -11 2 -40 8 -65 14 -56 12 -161
30 -214 36 -175 21 -416 82 -505 128 -55 29 -29 27 55 -3 94 -34 263 -72 270
-60 3 5 -3 9 -13 10 -87 4 -298 66 -361 107 -38 25 -18 24 42 -3 31 -14 62
-25 69 -24 7 0 1 5 -13 11 -87 39 -151 71 -156 79 -8 14 3 11 56 -16 102 -52
234 -77 475 -90 55 -3 123 -7 150 -10 137 -12 190 -14 150 -6 -36 8 -81 12
-315 27 -239 15 -360 38 -462 90 -66 33 -56 41 13 10 54 -24 158 -50 166 -42
3 2 -22 10 -54 16 -66 14 -171 62 -213 97 -23 19 -29 20 -34 8z m66 -53 c-6
-2 -10 -8 -6 -13 3 -5 0 -9 -7 -9 -7 0 3 -12 22 -26 25 -19 28 -24 12 -19 -35
10 -27 -1 17 -26 38 -21 39 -24 20 -31 -14 -5 -29 -3 -43 7 -15 10 -17 15 -7
15 9 0 4 9 -14 25 -17 15 -23 25 -15 25 8 1 3 10 -14 25 -15 14 -23 25 -17 25
6 0 8 4 5 10 -4 6 1 7 11 3 12 -5 15 -3 9 6 -6 11 -3 11 16 0 15 -7 19 -14 11
-17z"/>
<path d="M801 1231 c-8 -5 -9 -11 -3 -15 5 -3 12 1 16 9 6 17 6 18 -13 6z"/>
<path d="M850 1126 c0 -2 7 -7 16 -10 8 -3 12 -2 9 4 -6 10 -25 14 -25 6z"/>
<path d="M1085 1160 c3 -5 10 -10 16 -10 5 0 9 5 9 10 0 6 -7 10 -16 10 -8 0
-12 -4 -9 -10z"/>
<path d="M1121 1156 c5 -5 135 -13 369 -21 80 -3 168 -7 195 -10 48 -4 49 -4
10 5 -22 4 -107 11 -190 14 -82 4 -204 9 -270 12 -66 3 -117 3 -114 0z"/>
<path d="M1746 1123 c-3 -4 36 -17 87 -30 107 -27 239 -87 317 -145 30 -23 98
-83 150 -134 121 -117 194 -183 198 -179 2 2 -18 23 -44 47 -27 23 -89 83
-139 131 -164 161 -278 232 -450 282 -49 14 -95 27 -102 29 -6 3 -14 2 -17 -1z"/>
<path d="M875 1055 c17 -14 24 -25 17 -25 -7 0 -10 -4 -7 -10 3 -5 11 -10 16
-10 6 0 7 5 4 10 -10 16 7 11 55 -16 25 -14 68 -35 95 -46 55 -22 257 -84 302
-92 166 -30 458 -104 563 -143 119 -45 202 -86 354 -178 200 -120 420 -226
467 -225 8 1 -24 16 -71 33 -101 39 -255 119 -412 215 -209 128 -301 166 -573
237 -49 13 -106 27 -125 30 -95 16 -339 78 -437 111 -77 26 -228 102 -220 111
3 2 36 -11 73 -30 38 -18 101 -44 141 -56 88 -27 443 -100 443 -91 0 3 -78 21
-172 40 -194 37 -345 83 -431 129 -62 33 -72 37 -62 21 3 -5 2 -10 -4 -10 -5
0 -13 5 -16 10 -3 6 -12 10 -18 10 -7 -1 2 -12 18 -25z"/>
<path d="M850 1045 c7 -8 17 -15 22 -15 6 0 5 7 -2 15 -7 8 -17 15 -22 15 -6
0 -5 -7 2 -15z"/>
<path d="M1280 1019 c0 -4 18 -9 39 -11 22 -2 37 0 35 3 -5 9 -74 17 -74 8z"/>
<path d="M883 995 c15 -14 33 -25 40 -25 7 0 -1 11 -18 25 -39 32 -58 32 -22
0z"/>
<path d="M1370 1008 c0 -4 9 -8 19 -8 11 0 26 -3 35 -6 9 -3 16 -2 16 4 0 5
-16 12 -35 14 -19 2 -35 0 -35 -4z"/>
<path d="M958 739 c24 -23 46 -39 48 -36 7 7 -68 76 -81 76 -5 0 9 -18 33 -40z"/>
</g>
</svg>
